<?xml version="1.0"?>
<svg width="283.46" height="259.17" xmlns="http://www.w3.org/2000/svg" xmlns:svg="http://www.w3.org/2000/svg" xmlns:xlink="http://www.w3.org/1999/xlink">
 <!-- Created with SVG-edit - https://github.com/SVG-Edit/svgedit-->
 <defs>
  <symbol height="259.17" id="svg_2" width="283.46" xmlns="http://www.w3.org/2000/svg" xmlns:svg="http://www.w3.org/2000/svg">
   <defs>
    <style>.b{fill:#1e476d;}</style>
   </defs>
   <g class="layer">
    <title>Layer 1</title>
    <path class="b" d="m181.35,199.49c0,-5.12 -4.15,-9.27 -9.27,-9.27c-1.27,0 -2.48,0.26 -3.59,0.72l0,0l0,-0.04c-7.96,3.27 -16.67,5.11 -25.81,5.11c-37.53,0 -67.95,-30.33 -67.95,-67.74s30.42,-67.74 67.95,-67.74s67.95,30.33 67.95,67.74c0,12.54 -3.44,24.27 -9.4,34.34l-46.08,-51.17l-12.47,-13.85l-41.47,46.06l0,0c-1.61,1.68 -2.61,3.94 -2.61,6.44c0,5.12 4.15,9.27 9.27,9.27c2.85,0 5.4,-1.29 7.1,-3.32l0,0l27.7,-30.76l69.94,77.68l0.02,-0.02c1.7,2.13 4.31,3.51 7.25,3.51c5.12,0 9.27,-4.15 9.27,-9.27c0,-2.59 -1.06,-4.93 -2.78,-6.61l0.02,0l-12.32,-13.69c9.5,-13.84 15.08,-30.57 15.08,-48.61c0,-47.64 -38.71,-86.27 -86.47,-86.27s-86.48,38.63 -86.48,86.27s38.72,86.27 86.48,86.27c11.5,0 22.47,-2.26 32.51,-6.33c3.59,-1.28 6.16,-4.69 6.16,-8.72z" id="svg_1"/>
   </g>
  </symbol>
 </defs>
 <g class="layer">
  <title>Layer 1</title>
  <use id="svg_3" transform="matrix(1.29312 0 0 1.29312 -190.306 -644.406)" x="114.68" xlink:href="#svg_2" y="470.05"/>
 </g>
</svg>
